# File created by Blade
# Date/Time:  Thu Sep 25 17:14:50 2014
# Frame Rate: 120.000 fps
#------------------------------------------------------
:FULLY-SPECIFIED
:DEGREES
516
root 29.035434 30.324442 -2.527182 186.475903 -64.106883 -111.299072
Spine 8.163319 0.676056 -25.409159
Head -59.962666 17.100364 -6.035779
LeftShoulder 9.315068 -12.740072 40.745604
LeftArm 57.667858 -42.576906 -62.583724
LeftForeArm -75.379935 -0.000000 6.486468
LeftHand -45.999565 0.000000 25.064221
LeftHandThumb1 -26.253704 0.000000 33.147579
RightShoulder -59.326823 66.178817 -114.393439
RightArm 7.972042 9.389064 39.530583
RightForeArm -12.967802 -0.000000 39.211978
RightHand -9.134020 -0.000000 -19.138388
RightHandThumb1 -24.326973 -0.000000 -32.862282
LeftUpLeg -97.480201 10.597075 6.796155
LeftLeg 61.821797 -0.000000 -0.000000
LeftFoot -37.884296 17.737875 -22.589523
LeftToeBase -6.267306 -0.000000 0.000000
RightUpLeg -23.934799 -15.289261 15.753625
RightLeg 5.753022 -0.000000 -0.000000
RightFoot 21.685025 6.761870 10.093382
RightToeBase 12.691817 -0.000000 -0.000000
517
root 28.592446 30.393184 -2.444254 186.858280 -63.082358 -109.622594
Spine 8.176307 -0.271901 -26.371688
Head -62.215867 17.374085 -6.760342
LeftShoulder 9.697544 -12.496616 40.547751
LeftArm 58.545054 -42.823389 -63.698489
LeftForeArm -75.369103 -0.000000 6.509728
LeftHand -46.663617 -0.000000 26.625934
LeftHandThumb1 -26.253704 0.000000 33.147579
RightShoulder -58.011797 65.983790 -112.796299
RightArm 8.905310 9.890017 39.513547
RightForeArm -13.017686 -0.000000 39.681678
RightHand -8.509986 -0.000000 -19.637531
RightHandThumb1 -24.326973 -0.000000 -32.862282
LeftUpLeg -98.114990 11.462144 7.405913
LeftLeg 61.380343 -0.000000 -0.000000
LeftFoot -38.645387 18.003110 -22.892068
LeftToeBase -6.369593 -0.000000 0.000000
RightUpLeg -23.651323 -15.102259 15.138353
RightLeg 5.439504 -0.000000 -0.000000
RightFoot 24.121451 5.550075 9.573934
RightToeBase 13.166870 -0.000000 -0.000000
518
root 28.132944 30.460708 -2.356830 187.270215 -61.908554 -107.965120
Spine 8.003551 -1.354083 -27.325844
Head -64.140945 17.558160 -7.460177
LeftShoulder 9.862702 -12.505841 40.169122
LeftArm 59.264525 -42.956151 -64.839979
LeftForeArm -75.299899 -0.000000 6.623583
LeftHand -47.342491 0.000000 28.606400
LeftHandThumb1 -26.253704 0.000000 33.147579
RightShoulder -57.993806 66.264310 -112.857887
RightArm 9.244663 10.044764 39.638961
RightForeArm -13.385148 -0.000000 40.216301
RightHand -8.412208 -0.000000 -20.205151
RightHandThumb1 -24.326973 -0.000000 -32.862282
LeftUpLeg -98.690731 12.457064 8.053561
LeftLeg 60.978390 -0.000000 -0.000000
LeftFoot -39.401226 18.323307 -23.268721
LeftToeBase -6.527200 -0.000000 0.000000
RightUpLeg -23.114393 -14.676293 14.204169
RightLeg 5.095467 -0.000000 -0.000000
RightFoot 26.841924 4.604366 8.749210
RightToeBase 14.518130 -0.000000 -0.000000
519
root 27.663844 30.526743 -2.261412 187.695754 -60.560792 -106.337955
Spine 7.719264 -2.225635 -28.249927
Head -65.844489 17.557958 -8.267958
LeftShoulder 9.796988 -10.409771 39.720256
LeftArm 62.926719 -43.551345 -67.118731
LeftForeArm -76.040845 0.000000 6.301148
LeftHand -48.086313 -0.000000 29.354935
LeftHandThumb1 -26.253704 0.000000 33.147579
RightShoulder -58.294682 66.535234 -113.501588
RightArm 9.222865 10.051808 39.772301
RightForeArm -13.710096 0.000000 40.883908
RightHand -8.233526 -0.000000 -20.640840
RightHandThumb1 -24.326973 -0.000000 -32.862282
LeftUpLeg -99.194280 13.621548 8.692534
LeftLeg 60.599985 -0.000000 -0.000000
LeftFoot -40.092423 18.474056 -23.794029
LeftToeBase -6.936517 -0.000000 0.000000
RightUpLeg -22.394012 -14.256872 13.038196
RightLeg 4.601981 -0.000000 -0.000000
RightFoot 28.753482 4.664657 6.391088
RightToeBase 21.523804 -0.000000 -0.000000
520
root 27.192269 30.599573 -2.169609 187.938227 -59.088710 -104.530509
Spine 7.369002 -2.857939 -29.130859
Head -67.543020 17.361840 -8.736527
LeftShoulder 10.978887 -23.572246 39.754817
LeftArm 46.214078 -39.538190 -61.248463
LeftForeArm -75.619946 -0.000000 8.954472
LeftHand -49.063900 0.000000 30.066495
LeftHandThumb1 -26.253704 0.000000 33.147579
RightShoulder -58.814262 66.804032 -114.215536
RightArm 9.281480 9.791817 39.821000
RightForeArm -14.041202 -0.000000 41.533305
RightHand -8.613665 0.000000 -21.239648
RightHandThumb1 -24.326973 -0.000000 -32.862282
LeftUpLeg -99.619283 14.960207 9.444381
LeftLeg 60.228513 -0.000000 -0.000000
LeftFoot -40.648847 18.608206 -24.183772
LeftToeBase -7.530670 -0.000000 0.000000
RightUpLeg -21.599087 -14.015206 11.959836
RightLeg 5.385444 -0.000000 -0.000000
RightFoot 29.748492 4.899071 4.076699
RightToeBase 21.316395 -0.000000 -0.000000
521
root 26.713719 30.675649 -2.068416 188.207829 -57.525717 -102.683120
Spine 6.866760 -3.536648 -29.872342
Head -69.071521 17.089097 -9.313196
LeftShoulder 11.920346 -31.191005 39.296050
LeftArm 37.345446 -37.510584 -59.013238
LeftForeArm -75.709367 -0.000000 10.621774
LeftHand -49.158897 -0.000000 31.302515
LeftHandThumb1 -26.253704 0.000000 33.147579
RightShoulder -58.462394 66.865778 -113.974751
RightArm 9.874445 9.534813 39.760734
RightForeArm -13.975682 0.000000 42.116907
RightHand -8.683759 -0.000000 -21.774170
RightHandThumb1 -24.326973 -0.000000 -32.862282
LeftUpLeg -100.006355 16.381722 10.279254
LeftLeg 59.829379 -0.000000 -0.000000
LeftFoot -41.219123 18.995408 -24.602134
LeftToeBase -7.853866 -0.000000 0.000000
RightUpLeg -20.719942 -13.637583 10.684377
RightLeg 6.297198 -0.000000 -0.000000
RightFoot 30.706828 5.005955 2.144028
RightToeBase 20.538023 -0.000000 -0.000000
522
root 26.231415 30.763889 -1.967834 188.524326 -55.793174 -100.834452
Spine 6.138852 -3.947497 -30.554337
Head -70.362236 16.472722 -9.904896
LeftShoulder 10.112700 -14.437507 39.004934
LeftArm 61.377780 -43.064413 -70.245611
LeftForeArm -76.769525 -0.000000 7.890681
LeftHand -49.487463 -0.000000 34.180942
LeftHandThumb1 -26.253704 0.000000 33.147579
RightShoulder -56.152516 66.432053 -111.641963
RightArm 11.146782 9.826785 39.640364
RightForeArm -14.555725 -0.000000 42.398390
RightHand -7.738563 -0.000000 -22.691198
RightHandThumb1 -24.326973 -0.000000 -32.862282
LeftUpLeg -100.302345 18.001094 11.105774
LeftLeg 59.339617 -0.000000 -0.000000
LeftFoot -41.736601 19.634997 -24.971402
LeftToeBase -8.043661 -0.000000 0.000000
RightUpLeg -19.796359 -13.068949 9.216053
RightLeg 7.426938 -0.000000 -0.000000
RightFoot 30.629214 5.867562 -0.336410
RightToeBase 19.824170 -0.000000 -0.000000
523
root 25.745580 30.862738 -1.855552 188.842645 -54.081205 -98.953363
Spine 5.437105 -4.579700 -31.212681
Head -71.828595 16.002492 -10.375439
LeftShoulder 9.988454 -14.165954 38.790506
LeftArm 62.997734 -43.485431 -72.100558
LeftForeArm -76.828018 0.000000 8.276928
LeftHand -49.482151 -0.000000 34.167582
LeftHandThumb1 -26.253704 0.000000 33.147579
RightShoulder -57.360253 66.807106 -113.232389
RightArm 11.154277 9.164608 39.615215
RightForeArm -15.200625 -0.000000 42.873606
RightHand -7.222249 -0.000000 -22.943048
RightHandThumb1 -24.326973 -0.000000 -32.862282
LeftUpLeg -100.461160 19.601581 12.069826
LeftLeg 58.672995 -0.000000 -0.000000
LeftFoot -42.216128 20.155782 -25.433266
LeftToeBase -8.291783 -0.000000 0.000000
RightUpLeg -18.887501 -12.577547 7.663374
RightLeg 8.816695 -0.000000 -0.000000
RightFoot 30.402999 6.201405 -1.996544
RightToeBase 19.232592 -0.000000 -0.000000
